<?plantuml 1.2026.2?><svg xmlns="http://www.w3.org/2000/svg" xmlns:xlink="http://www.w3.org/1999/xlink" contentStyleType="text/css" data-diagram-type="STATE" height="298px" preserveAspectRatio="none" style="width:935px;height:298px;background:#FFFFFF;" version="1.1" viewBox="0 0 935 298" width="935px" zoomAndPan="magnify"><defs/><g><g class="entity" data-qualified-name="undefined" id="ent0002"><rect fill="#F1F1F1" height="50" rx="12.5" ry="12.5" style="stroke:#181818;stroke-width:0.5;" width="87.3957" x="61.3" y="7"/><line style="stroke:#181818;stroke-width:0.5;" x1="61.3" x2="148.6957" y1="36.0679" y2="36.0679"/><text fill="#000000" font-family="sans-serif" font-size="14" lengthAdjust="spacing" textLength="67.3957" x="71.3" y="26.9659">undefined</text></g><g class="entity" data-qualified-name="defined" id="ent0003"><rect fill="#F1F1F1" height="50" rx="12.5" ry="12.5" style="stroke:#181818;stroke-width:0.5;" width="70.0918" x="312.95" y="7"/><line style="stroke:#181818;stroke-width:0.5;" x1="312.95" x2="383.0418" y1="36.0679" y2="36.0679"/><text fill="#000000" font-family="sans-serif" font-size="14" lengthAdjust="spacing" textLength="50.0918" x="322.95" y="26.9659">defined</text></g><g class="entity" data-qualified-name="circular" id="ent0004"><rect fill="#F1F1F1" height="50" rx="12.5" ry="12.5" style="stroke:#181818;stroke-width:0.5;" width="68.7338" x="605.63" y="7"/><line style="stroke:#181818;stroke-width:0.5;" x1="605.63" x2="674.3638" y1="36.0679" y2="36.0679"/><text fill="#000000" font-family="sans-serif" font-size="14" lengthAdjust="spacing" textLength="48.7338" x="615.63" y="26.9659">circular</text></g><g class="entity" data-qualified-name="final" id="ent0005"><rect fill="#F1F1F1" height="55.412" rx="12.5" ry="12.5" style="stroke:#181818;stroke-width:0.5;" width="54.5963" x="279.7" y="136"/><line style="stroke:#181818;stroke-width:0.5;" x1="279.7" x2="334.2963" y1="165.0679" y2="165.0679"/><text fill="#000000" font-family="sans-serif" font-size="14" lengthAdjust="spacing" textLength="28.5459" x="292.7252" y="155.9659">final</text><text fill="#000000" font-family="sans-serif" font-size="12" lengthAdjust="spacing" textLength="34.5963" x="284.7" y="182.896">object</text></g><g class="entity" data-qualified-name="final2" id="ent0006"><rect fill="#F1F1F1" height="55.412" rx="12.5" ry="12.5" style="stroke:#181818;stroke-width:0.5;" width="109.3196" x="585.34" y="136"/><line style="stroke:#181818;stroke-width:0.5;" x1="585.34" x2="694.6596" y1="165.0679" y2="165.0679"/><text fill="#000000" font-family="sans-serif" font-size="14" lengthAdjust="spacing" textLength="89.3196" x="595.34" y="155.9659">final (circular)</text><text fill="#000000" font-family="sans-serif" font-size="12" lengthAdjust="spacing" textLength="34.5963" x="590.34" y="182.896">object</text></g><g class="start_entity" data-qualified-name=".start." data-source-line="13" id="ent0002"><ellipse cx="16" cy="32" fill="#222222" rx="10" ry="10" style="stroke:#222222;stroke-width:1;"/></g><g class="end_entity" data-qualified-name=".end." data-source-line="15" id="ent0005"><ellipse cx="307" cy="281.41" fill="none" rx="11" ry="11" style="stroke:#222222;stroke-width:1;"/><ellipse cx="307" cy="281.41" fill="#222222" rx="6" ry="6" style="stroke:#222222;stroke-width:1;"/></g><!--link *start* to undefined--><g class="link" data-entity-1="ent0002" data-entity-2="ent0002" data-link-type="dependency" data-source-line="13" id="lnk3"><path d="M26.43,32 C37.89,32 43.35,32 54.8,32" fill="none" id="*start*-to-undefined" style="stroke:#181818;stroke-width:1;"/><polygon fill="#181818" points="60.8,32,51.8,28,55.8,32,51.8,36,60.8,32" style="stroke:#181818;stroke-width:1;"/></g><!--link undefined to defined--><g class="link" data-entity-1="ent0002" data-entity-2="ent0003" data-link-type="dependency" data-source-line="14" id="lnk4"><path d="M149.12,48.9 C156.28,51.01 163.69,52.84 170.83,54 C197.15,58.28 264.61,58.87 290.83,54 C298.04,52.66 299.8674,52.4519 306.9474,49.9319" fill="none" id="undefined-to-defined" style="stroke:#181818;stroke-width:1;"/><polygon fill="#181818" points="312.6,47.92,302.7798,47.1695,307.8895,49.5966,305.4624,54.7063,312.6,47.92" style="stroke:#181818;stroke-width:1;"/><text fill="#000000" font-family="sans-serif" font-size="13" lengthAdjust="spacing" textLength="118.4301" x="171.83" y="49.897">note-labeled-object</text></g><!--link defined to undefined--><g class="link" data-entity-1="ent0003" data-entity-2="ent0002" data-link-type="dependency" data-source-line="26" id="lnk15"><path d="M312.6,32 C269.28,32 201.92,32 155.01,32" fill="none" id="defined-to-undefined" style="stroke:#181818;stroke-width:1;"/><polygon fill="#181818" points="149.01,32,158.01,36,154.01,32,158.01,28,149.01,32" style="stroke:#181818;stroke-width:1;"/><text fill="#000000" font-family="sans-serif" font-size="13" lengthAdjust="spacing" textLength="128.2321" x="166.83" y="24.897">forget-labeled-object</text></g><!--link undefined to *end*--><g class="link" data-entity-1="ent0002" data-entity-2="ent0005" data-link-type="dependency" data-source-line="15" id="lnk6"><path d="M112.97,57.37 C124.65,90.42 148.91,150.05 184,191.41 C218.44,232.01 269.7899,261.1758 292.1699,272.8458" fill="none" id="undefined-to-*end*" style="stroke:#181818;stroke-width:1;"/><polygon fill="#181818" points="297.49,275.62,291.3592,267.912,293.0565,273.3082,287.6603,275.0055,297.49,275.62" style="stroke:#181818;stroke-width:1;"/><text fill="#000000" font-family="sans-serif" font-size="13" lengthAdjust="spacing" textLength="76.1801" x="185" y="169.097">end-of-input</text></g><!--link defined to final--><g class="link" data-entity-1="ent0003" data-entity-2="ent0005" data-link-type="dependency" data-source-line="16" id="lnk7"><path d="M340.29,57.39 C333.24,79.7 324.6271,106.9286 317.3371,130.0086" fill="none" id="defined-to-final" style="stroke:#181818;stroke-width:1;"/><polygon fill="#181818" points="315.53,135.73,322.055,128.3527,317.036,130.9622,314.4265,125.9432,315.53,135.73" style="stroke:#181818;stroke-width:1;"/><text fill="#000000" font-family="sans-serif" font-size="13" lengthAdjust="spacing" textLength="133.8091" x="330.95" y="101.897">finalize-labeled-object</text></g><!--link final to final--><g class="link" data-entity-1="ent0005" data-entity-2="ent0005" data-link-type="dependency" data-source-line="17" id="lnk8"><path d="M334.54,152.1 C352.25,149.07 369.3,152.94 369.3,163.7 C369.3,174.47 358.1641,179.3518 340.4541,176.3218" fill="none" id="final-to-final" style="stroke:#181818;stroke-width:1;"/><polygon fill="#181818" points="334.54,175.31,342.7365,180.7705,339.4684,176.1532,344.0857,172.885,334.54,175.31" style="stroke:#181818;stroke-width:1;"/><text fill="#000000" font-family="sans-serif" font-size="13" lengthAdjust="spacing" textLength="186.5371" x="375.3" y="169.097">{find,reference}-labeled-object</text></g><!--link final to *end*--><g class="link" data-entity-1="ent0005" data-entity-2="ent0005" data-link-type="dependency" data-source-line="18" id="lnk9"><path d="M307,191.83 C307,216.81 307,246.56 307,264.02" fill="none" id="final-to-*end*" style="stroke:#181818;stroke-width:1;"/><polygon fill="#181818" points="307,270.02,311,261.02,307,265.02,303,261.02,307,270.02" style="stroke:#181818;stroke-width:1;"/><text fill="#000000" font-family="sans-serif" font-size="13" lengthAdjust="spacing" textLength="76.1801" x="308" y="236.307">end-of-input</text></g><!--link defined to circular--><g class="link" data-entity-1="ent0003" data-entity-2="ent0004" data-link-type="dependency" data-source-line="20" id="lnk10"><path d="M383.51,32 C439.9,32 543.24,32 599.19,32" fill="none" id="defined-to-circular" style="stroke:#181818;stroke-width:1;"/><polygon fill="#181818" points="605.19,32,596.19,28,600.19,32,596.19,36,605.19,32" style="stroke:#181818;stroke-width:1;"/><text fill="#000000" font-family="sans-serif" font-size="13" lengthAdjust="spacing" textLength="186.5371" x="401.34" y="24.897">{find,reference}-labeled-object</text></g><!--link circular to circular--><g class="link" data-entity-1="ent0004" data-entity-2="ent0004" data-link-type="dependency" data-source-line="21" id="lnk11"><path d="M674.62,20.37 C692.85,18.48 709.37,22.36 709.37,32 C709.37,41.64 698.8183,46.1255 680.5883,44.2455" fill="none" id="circular-to-circular" style="stroke:#181818;stroke-width:1;"/><polygon fill="#181818" points="674.62,43.63,683.1622,48.5321,679.5936,44.1429,683.9829,40.5743,674.62,43.63" style="stroke:#181818;stroke-width:1;"/><text fill="#000000" font-family="sans-serif" font-size="13" lengthAdjust="spacing" textLength="186.5371" x="715.37" y="37.397">{find,reference}-labeled-object</text></g><!--link circular to final2--><g class="link" data-entity-1="ent0004" data-entity-2="ent0006" data-link-type="dependency" data-source-line="22" id="lnk12"><path d="M640,57.39 C640,79.7 640,106.65 640,129.73" fill="none" id="circular-to-final2" style="stroke:#181818;stroke-width:1;"/><polygon fill="#181818" points="640,135.73,644,126.73,640,130.73,636,126.73,640,135.73" style="stroke:#181818;stroke-width:1;"/><text fill="#000000" font-family="sans-serif" font-size="13" lengthAdjust="spacing" textLength="133.8091" x="641" y="101.897">finalize-labeled-object</text></g><!--link final2 to final2--><g class="link" data-entity-1="ent0006" data-entity-2="ent0006" data-link-type="dependency" data-source-line="23" id="lnk13"><path d="M695.16,151.11 C714.25,150.97 729.66,155.17 729.66,163.7 C729.66,172.24 720.2498,176.484 701.1598,176.344" fill="none" id="final2-to-final2" style="stroke:#181818;stroke-width:1;"/><polygon fill="#181818" points="695.16,176.3,704.1304,180.3659,700.1599,176.3367,704.1891,172.3661,695.16,176.3" style="stroke:#181818;stroke-width:1;"/><text fill="#000000" font-family="sans-serif" font-size="13" lengthAdjust="spacing" textLength="186.5371" x="735.66" y="169.097">{find,reference}-labeled-object</text></g><!--link final2 to *end*--><g class="link" data-entity-1="ent0006" data-entity-2="ent0005" data-link-type="dependency" data-source-line="24" id="lnk14"><path d="M585.02,185.27 C579.28,187.36 573.53,189.44 568,191.41 C471.03,225.92 358.546,263.3542 323.176,275.0642" fill="none" id="final2-to-*end*" style="stroke:#181818;stroke-width:1;"/><polygon fill="#181818" points="317.48,276.95,327.2811,277.9187,322.2266,275.3785,324.7668,270.324,317.48,276.95" style="stroke:#181818;stroke-width:1;"/><text fill="#000000" font-family="sans-serif" font-size="13" lengthAdjust="spacing" textLength="76.1801" x="483.1" y="236.307">end-of-input</text></g><?plantuml-src fL71Zi8W5Bpp5I-UN6Cl77lO7p4UQ9bQDYqrzFMYyT-bXPRg9aOZ1_86PeR9K1iDQj4MSBseHw2OdIa6HiGjkEvqBqJFYa63rQYCXOxu4PN6bKEZN8J-IZLYsdFgYZ-K76ysqo5jPy7FXbGV-388vA8GXzsHmif-QPLWcQRpUIRAoNQCh5456kWisgpOdfuySuBrf2epzZomI3OZBSGCj6asbt_6YJF6M2kk7kYzGmK7M-BsGlagqZgJVs7kx9qN4lSBvTo3VAC7-T23_A07-MaFwKDzfiwTm4--Tm00?></g></svg>