<?plantuml 1.2026.2?><svg xmlns="http://www.w3.org/2000/svg" xmlns:xlink="http://www.w3.org/1999/xlink" contentStyleType="text/css" data-diagram-type="STATE" height="432px" preserveAspectRatio="none" style="width:1064px;height:432px;background:#FFFFFF;" version="1.1" viewBox="0 0 1064 432" width="1064px" zoomAndPan="magnify"><defs/><g><g class="entity" data-qualified-name="undefined" id="ent0002"><rect fill="#F1F1F1" height="50" rx="12.5" ry="12.5" style="stroke:#181818;stroke-width:0.5;" width="87.3957" x="61.3" y="7"/><line style="stroke:#181818;stroke-width:0.5;" x1="61.3" x2="148.6957" y1="36.0679" y2="36.0679"/><text fill="#000000" font-family="sans-serif" font-size="14" lengthAdjust="spacing" textLength="67.3957" x="71.3" y="26.9659">undefined</text></g><g class="entity" data-qualified-name="defined" id="ent0003"><rect fill="#F1F1F1" height="50" rx="12.5" ry="12.5" style="stroke:#181818;stroke-width:0.5;" width="70.0918" x="299.95" y="7"/><line style="stroke:#181818;stroke-width:0.5;" x1="299.95" x2="370.0418" y1="36.0679" y2="36.0679"/><text fill="#000000" font-family="sans-serif" font-size="14" lengthAdjust="spacing" textLength="50.0918" x="309.95" y="26.9659">defined</text></g><g class="entity" data-qualified-name="circular" id="ent0004"><rect fill="#F1F1F1" height="50" rx="12.5" ry="12.5" style="stroke:#181818;stroke-width:0.5;" width="68.7338" x="564.63" y="7"/><line style="stroke:#181818;stroke-width:0.5;" x1="564.63" x2="633.3638" y1="36.0679" y2="36.0679"/><text fill="#000000" font-family="sans-serif" font-size="14" lengthAdjust="spacing" textLength="48.7338" x="574.63" y="26.9659">circular</text></g><g class="entity" data-qualified-name="final" id="ent0005"><rect fill="#F1F1F1" height="55.412" rx="12.5" ry="12.5" style="stroke:#181818;stroke-width:0.5;" width="54.5963" x="307.7" y="136"/><line style="stroke:#181818;stroke-width:0.5;" x1="307.7" x2="362.2963" y1="165.0679" y2="165.0679"/><text fill="#000000" font-family="sans-serif" font-size="14" lengthAdjust="spacing" textLength="28.5459" x="320.7252" y="155.9659">final</text><text fill="#000000" font-family="sans-serif" font-size="12" lengthAdjust="spacing" textLength="34.5963" x="312.7" y="182.896">object</text></g><g class="entity" data-qualified-name="referenced" id="ent0006"><rect fill="#F1F1F1" height="55.412" rx="12.5" ry="12.5" style="stroke:#181818;stroke-width:0.5;" width="91.9457" x="138.03" y="270.41"/><line style="stroke:#181818;stroke-width:0.5;" x1="138.03" x2="229.9757" y1="299.4779" y2="299.4779"/><text fill="#000000" font-family="sans-serif" font-size="14" lengthAdjust="spacing" textLength="71.9457" x="148.03" y="290.3759">referenced</text><text fill="#000000" font-family="sans-serif" font-size="12" lengthAdjust="spacing" textLength="34.5963" x="143.03" y="317.306">object</text></g><g class="entity" data-qualified-name="final2" id="ent0007"><rect fill="#F1F1F1" height="55.412" rx="12.5" ry="12.5" style="stroke:#181818;stroke-width:0.5;" width="109.3196" x="606.34" y="136"/><line style="stroke:#181818;stroke-width:0.5;" x1="606.34" x2="715.6596" y1="165.0679" y2="165.0679"/><text fill="#000000" font-family="sans-serif" font-size="14" lengthAdjust="spacing" textLength="89.3196" x="616.34" y="155.9659">final (circular)</text><text fill="#000000" font-family="sans-serif" font-size="12" lengthAdjust="spacing" textLength="34.5963" x="611.34" y="182.896">object</text></g><g class="entity" data-qualified-name="referenced2" id="ent0008"><rect fill="#F1F1F1" height="55.412" rx="12.5" ry="12.5" style="stroke:#181818;stroke-width:0.5;" width="152.7195" x="584.64" y="270.41"/><line style="stroke:#181818;stroke-width:0.5;" x1="584.64" x2="737.3595" y1="299.4779" y2="299.4779"/><text fill="#000000" font-family="sans-serif" font-size="14" lengthAdjust="spacing" textLength="132.7195" x="594.64" y="290.3759">referenced (circular)</text><text fill="#000000" font-family="sans-serif" font-size="12" lengthAdjust="spacing" textLength="34.5963" x="589.64" y="317.306">object</text></g><g class="start_entity" data-qualified-name=".start." data-source-line="18" id="ent0002"><ellipse cx="16" cy="32" fill="#222222" rx="10" ry="10" style="stroke:#222222;stroke-width:1;"/></g><g class="end_entity" data-qualified-name=".end." data-source-line="20" id="ent0005"><ellipse cx="472" cy="415.82" fill="none" rx="11" ry="11" style="stroke:#222222;stroke-width:1;"/><ellipse cx="472" cy="415.82" fill="#222222" rx="6" ry="6" style="stroke:#222222;stroke-width:1;"/></g><!--link *start* to undefined--><g class="link" data-entity-1="ent0002" data-entity-2="ent0002" data-link-type="dependency" data-source-line="18" id="lnk3"><path d="M26.43,32 C37.89,32 43.35,32 54.8,32" fill="none" id="*start*-to-undefined" style="stroke:#181818;stroke-width:1;"/><polygon fill="#181818" points="60.8,32,51.8,28,55.8,32,51.8,36,60.8,32" style="stroke:#181818;stroke-width:1;"/></g><!--link undefined to defined--><g class="link" data-entity-1="ent0002" data-entity-2="ent0003" data-link-type="dependency" data-source-line="19" id="lnk4"><path d="M149.11,45.29 C176.21,51.89 211.69,57.74 243.33,54 C262.18,51.77 276.9725,48.5855 293.8525,44.0855" fill="none" id="undefined-to-defined" style="stroke:#181818;stroke-width:1;"/><polygon fill="#181818" points="299.65,42.54,289.9233,40.9933,294.8187,43.828,291.9841,48.7233,299.65,42.54" style="stroke:#181818;stroke-width:1;"/><text fill="#000000" font-family="sans-serif" font-size="13" lengthAdjust="spacing" textLength="36.322" x="206.33" y="49.897">"#N="</text></g><!--link defined to undefined--><g class="link" data-entity-1="ent0003" data-entity-2="ent0002" data-link-type="dependency" data-source-line="35" id="lnk19"><path d="M299.73,32 C259.28,32 198.9,32 155.07,32" fill="none" id="defined-to-undefined" style="stroke:#181818;stroke-width:1;"/><polygon fill="#181818" points="149.07,32,158.07,36,154.07,32,158.07,28,149.07,32" style="stroke:#181818;stroke-width:1;"/><text fill="#000000" font-family="sans-serif" font-size="13" lengthAdjust="spacing" textLength="115.9731" x="166.83" y="24.897">"#N=#N#", recover</text></g><!--link undefined to *end*--><g class="link" data-entity-1="ent0002" data-entity-2="ent0005" data-link-type="dependency" data-source-line="20" id="lnk6"><path d="M97.79,57.2 C83.07,112.02 56.15,246.98 121,325.82 C166.23,380.8 400.221,407.5511 454.921,413.1311" fill="none" id="undefined-to-*end*" style="stroke:#181818;stroke-width:1;"/><polygon fill="#181818" points="460.89,413.74,452.3424,408.8473,455.9158,413.2326,451.5305,416.806,460.89,413.74" style="stroke:#181818;stroke-width:1;"/><text fill="#000000" font-family="sans-serif" font-size="13" lengthAdjust="spacing" textLength="76.1801" x="84.82" y="236.307">end-of-input</text></g><!--link defined to final--><g class="link" data-entity-1="ent0003" data-entity-2="ent0005" data-link-type="dependency" data-source-line="21" id="lnk7"><path d="M335,57.39 C335,79.7 335,106.64 335,129.73" fill="none" id="defined-to-final" style="stroke:#181818;stroke-width:1;"/><polygon fill="#181818" points="335,135.73,339,126.73,335,130.73,331,126.73,335,135.73" style="stroke:#181818;stroke-width:1;"/><text fill="#000000" font-family="sans-serif" font-size="13" lengthAdjust="spacing" textLength="54.405" x="336" y="101.897">"#N=(&#8230;)"</text></g><!--link final to referenced--><g class="link" data-entity-1="ent0005" data-entity-2="ent0006" data-link-type="dependency" data-source-line="22" id="lnk8"><path d="M307.3,188.99 C281.17,211.91 246.5511,242.264 219.4111,266.064" fill="none" id="final-to-referenced" style="stroke:#181818;stroke-width:1;"/><polygon fill="#181818" points="214.9,270.02,224.304,267.0935,218.6593,266.7234,219.0294,261.0786,214.9,270.02" style="stroke:#181818;stroke-width:1;"/><text fill="#000000" font-family="sans-serif" font-size="13" lengthAdjust="spacing" textLength="105.5471" x="269.54" y="236.307">"(&#8230;#N=(&#8230;)&#8230;#N#"</text></g><!--link referenced to referenced--><g class="link" data-entity-1="ent0006" data-entity-2="ent0006" data-link-type="dependency" data-source-line="23" id="lnk9"><path d="M230.19,285.61 C249.06,284.82 264.97,288.99 264.97,298.11 C264.97,307.24 255.0547,311.661 236.1847,310.871" fill="none" id="referenced-to-referenced" style="stroke:#181818;stroke-width:1;"/><polygon fill="#181818" points="230.19,310.62,239.0148,314.993,235.1856,310.8291,239.3494,307,230.19,310.62" style="stroke:#181818;stroke-width:1;"/><text fill="#000000" font-family="sans-serif" font-size="13" lengthAdjust="spacing" textLength="142.5061" x="270.97" y="303.507">"(&#8230;#N=(&#8230;)&#8230;#N#&#8230;#N#"</text></g><!--link final to *end*--><g class="link" data-entity-1="ent0005" data-entity-2="ent0005" data-link-type="dependency" data-source-line="24" id="lnk10"><path d="M359.2,191.67 C367.27,200.94 376.2,211.49 384,221.41 C400.54,242.44 406.5,246.74 419,270.41 C444.32,318.34 461.2209,375.2743 467.7909,399.1943" fill="none" id="final-to-*end*" style="stroke:#181818;stroke-width:1;"/><polygon fill="#181818" points="469.38,404.98,470.8534,395.242,468.0557,400.1586,463.1391,397.3608,469.38,404.98" style="stroke:#181818;stroke-width:1;"/><text fill="#000000" font-family="sans-serif" font-size="13" lengthAdjust="spacing" textLength="76.1801" x="443.88" y="303.507">end-of-input</text></g><!--link referenced to *end*--><g class="link" data-entity-1="ent0006" data-entity-2="ent0005" data-link-type="dependency" data-source-line="25" id="lnk11"><path d="M230.39,318.55 C267.52,334.02 320.98,356.11 368,374.82 C402.15,388.41 437.2852,401.7447 456.0252,408.8047" fill="none" id="referenced-to-*end*" style="stroke:#181818;stroke-width:1;"/><polygon fill="#181818" points="461.64,410.92,454.628,404.0039,456.961,409.1573,451.8077,411.4903,461.64,410.92" style="stroke:#181818;stroke-width:1;"/><text fill="#000000" font-family="sans-serif" font-size="13" lengthAdjust="spacing" textLength="76.1801" x="369" y="370.717">end-of-input</text></g><!--link defined to circular--><g class="link" data-entity-1="ent0003" data-entity-2="ent0004" data-link-type="dependency" data-source-line="27" id="lnk12"><path d="M370.33,32 C421.05,32 507.93,32 558.3,32" fill="none" id="defined-to-circular" style="stroke:#181818;stroke-width:1;"/><polygon fill="#181818" points="564.3,32,555.3,28,559.3,32,555.3,36,564.3,32" style="stroke:#181818;stroke-width:1;"/><text fill="#000000" font-family="sans-serif" font-size="13" lengthAdjust="spacing" textLength="77.1811" x="428.84" y="24.897">"#N=(&#8230;#N#"</text></g><!--link circular to circular--><g class="link" data-entity-1="ent0004" data-entity-2="ent0004" data-link-type="dependency" data-source-line="28" id="lnk13"><path d="M633.62,20.36 C651.85,18.48 668.37,22.36 668.37,32 C668.37,41.63 657.8183,46.1255 639.5883,44.2455" fill="none" id="circular-to-circular" style="stroke:#181818;stroke-width:1;"/><polygon fill="#181818" points="633.62,43.63,642.1622,48.5321,638.5936,44.1429,642.9829,40.5743,633.62,43.63" style="stroke:#181818;stroke-width:1;"/><text fill="#000000" font-family="sans-serif" font-size="13" lengthAdjust="spacing" textLength="114.1401" x="674.37" y="37.397">"#N=(&#8230;#N#&#8230;#N#"</text></g><!--link circular to final2--><g class="link" data-entity-1="ent0004" data-entity-2="ent0007" data-link-type="dependency" data-source-line="29" id="lnk14"><path d="M610.66,57.39 C621.33,79.7 634.4818,107.2269 645.5218,130.3169" fill="none" id="circular-to-final2" style="stroke:#181818;stroke-width:1;"/><polygon fill="#181818" points="648.11,135.73,647.8365,125.8849,645.9532,131.2191,640.619,129.3358,648.11,135.73" style="stroke:#181818;stroke-width:1;"/><text fill="#000000" font-family="sans-serif" font-size="13" lengthAdjust="spacing" textLength="91.3641" x="634.71" y="101.897">"#N=(&#8230;#N#&#8230;)"</text></g><!--link final2 to referenced2--><g class="link" data-entity-1="ent0007" data-entity-2="ent0008" data-link-type="dependency" data-source-line="30" id="lnk15"><path d="M661,191.82 C661,214.67 661,241.2 661,264.04" fill="none" id="final2-to-referenced2" style="stroke:#181818;stroke-width:1;"/><polygon fill="#181818" points="661,270.04,665,261.04,661,265.04,657,261.04,661,270.04" style="stroke:#181818;stroke-width:1;"/><text fill="#000000" font-family="sans-serif" font-size="13" lengthAdjust="spacing" textLength="142.5061" x="662" y="236.307">"(&#8230;#N=(&#8230;#N#&#8230;)&#8230;#N#"</text></g><!--link referenced2 to referenced2--><g class="link" data-entity-1="ent0008" data-entity-2="ent0008" data-link-type="dependency" data-source-line="31" id="lnk16"><path d="M737.77,285.65 C757.51,286.45 772.36,290.6 772.36,298.11 C772.36,305.63 763.5052,309.5401 743.7652,310.3301" fill="none" id="referenced2-to-referenced2" style="stroke:#181818;stroke-width:1;"/><polygon fill="#181818" points="737.77,310.57,746.9228,314.2069,742.766,310.3701,746.6028,306.2133,737.77,310.57" style="stroke:#181818;stroke-width:1;"/><text fill="#000000" font-family="sans-serif" font-size="13" lengthAdjust="spacing" textLength="179.4651" x="778.36" y="303.507">"(&#8230;#N=(&#8230;#N#&#8230;)&#8230;#N#&#8230;#N#"</text></g><!--link final2 to *end*--><g class="link" data-entity-1="ent0007" data-entity-2="ent0005" data-link-type="dependency" data-source-line="32" id="lnk17"><path d="M715.87,172.4 C822.03,189.49 1038.77,236.31 964,325.82 C899.73,402.76 556.8488,413.1919 489.3188,414.5219" fill="none" id="final2-to-*end*" style="stroke:#181818;stroke-width:1;"/><polygon fill="#181818" points="483.32,414.64,492.397,418.462,488.319,414.5415,492.2395,410.4636,483.32,414.64" style="stroke:#181818;stroke-width:1;"/><text fill="#000000" font-family="sans-serif" font-size="13" lengthAdjust="spacing" textLength="76.1801" x="980.36" y="303.507">end-of-input</text></g><!--link referenced2 to *end*--><g class="link" data-entity-1="ent0008" data-entity-2="ent0005" data-link-type="dependency" data-source-line="33" id="lnk18"><path d="M616.69,326.24 C571.74,353.76 510.5575,391.2177 486.3775,406.0177" fill="none" id="referenced2-to-*end*" style="stroke:#181818;stroke-width:1;"/><polygon fill="#181818" points="481.26,409.15,491.0244,407.8632,485.5246,406.5398,486.848,401.0399,481.26,409.15" style="stroke:#181818;stroke-width:1;"/><text fill="#000000" font-family="sans-serif" font-size="13" lengthAdjust="spacing" textLength="76.1801" x="567.5" y="370.717">end-of-input</text></g><?plantuml-src dL91KeGm4Bpd5LFPowubbnofqYVu0Sj3I8OYrXAi4FJgQtoOBn58ifdWAbNB0MQOxivqGsSqGezzWsvatT98xvrf9e-nxz5tWnuP6xtq29FLs1gBElPbfunJqrcwsCuZUMRhlOQXUKNbuyHXYmwjcfcvl60YYAzCE2RL4mSv1b4HLCL6bcUnBIrF13ao2x3dknT8L_KOdjdjfIBJ_0QW1dvuUk0bBWAfSWreTJMqbR5lasTKejB3XvqfmJKGsUFtvzU9Cpf8O69u0I_8H5ZB0sSKabRVfILoSUQ-d-AiVNZfF-wMlblfVzs6ZdRXLqaqOx7DE91IqkAlfCKciaZxdRUualU_v29rSKFgukRKwOyR4baskPytLyCxkXy0?></g></svg>